<svg version="1.0" xmlns="http://www.w3.org/2000/svg"
 width="1563.000000pt" height="1563.000000pt" viewBox="0 0 1563.000000 1563.000000"
 preserveAspectRatio="xMidYMid meet">

<g transform="translate(0.000000,1563.000000) scale(0.100000,-0.100000)"
fill="currentColor" stroke="none">
<path d="M9225 15076 c-58 -18 -103 -43 -165 -92 -71 -55 -454 -439 -449 -450
2 -5 64 -67 138 -139 l133 -130 212 216 c116 119 220 219 230 223 16 5 78 -52
336 -310 l317 -316 17 23 c36 51 61 159 60 264 0 115 -20 175 -94 286 -57 86
-290 315 -365 359 -124 73 -267 99 -370 66z"/>
<path d="M5682 14991 c-17 -17 -32 -36 -32 -43 0 -22 334 -348 356 -348 31 0
117 -45 146 -76 39 -42 58 -95 58 -161 l0 -58 156 -156 156 -156 86 44 c73 37
99 45 162 49 50 4 94 0 130 -9 30 -9 57 -14 58 -12 2 2 -82 94 -188 204 l-192
199 -226 148 c-125 81 -315 205 -423 276 -108 70 -200 128 -205 128 -5 0 -24
-13 -42 -29z"/>
<path d="M5480 14785 l-54 -54 31 -48 c17 -26 142 -219 279 -429 l249 -381
205 -196 c112 -108 206 -195 207 -193 1 1 -4 24 -12 51 -32 104 -9 261 51 349
l26 38 -157 158 -158 158 -71 4 c-58 3 -79 9 -114 33 -63 42 -95 102 -96 181
l-1 64 -160 160 c-88 88 -162 160 -165 160 -3 0 -30 -25 -60 -55z"/>
<path d="M9307 14582 c-10 -10 -17 -23 -17 -28 0 -5 134 -143 298 -307 l298
-298 24 26 24 26 -299 299 c-165 165 -303 300 -306 300 -3 0 -13 -8 -22 -18z"/>
<path d="M8255 14482 c-117 -57 -179 -153 -180 -277 0 -131 3 -135 330 -465
161 -162 295 -304 299 -314 5 -15 -25 -51 -146 -173 -84 -85 -161 -159 -171
-165 -16 -8 -41 12 -165 135 -81 80 -157 148 -170 152 -46 14 -87 -12 -120
-74 -90 -168 -81 -335 28 -489 27 -39 50 -79 50 -89 0 -10 -447 -465 -1060
-1078 -748 -749 -1064 -1071 -1075 -1097 -24 -59 -19 -117 14 -169 77 -119
179 -165 279 -124 26 11 507 486 1670 1648 897 897 1632 1637 1632 1642 0 6
-204 213 -452 461 -504 502 -497 496 -628 502 -66 3 -82 0 -135 -26z"/>
<path d="M9137 14082 c-15 -15 -27 -32 -27 -38 0 -5 97 -106 215 -224 l215
-215 32 32 32 32 -65 68 c-106 111 -367 373 -371 373 -2 0 -16 -13 -31 -28z"/>
<path d="M6701 14035 c-193 -54 -326 -257 -292 -447 40 -228 258 -383 476
-338 127 26 239 113 294 230 23 48 26 68 26 160 0 97 -2 110 -32 172 -65 139
-193 226 -341 234 -50 3 -96 -1 -131 -11z m161 -205 c142 -40 184 -236 71
-331 -123 -103 -313 -15 -313 146 0 82 50 153 126 180 48 17 68 18 116 5z"/>
<path d="M6730 13778 c-103 -68 -97 -213 11 -269 105 -53 221 19 221 137 0 85
-57 145 -144 152 -43 3 -59 0 -88 -20z"/>
<path d="M7874 13964 l-17 -25 204 -207 c112 -114 209 -208 214 -210 6 -1 22
9 35 23 l24 26 -209 209 c-116 116 -215 210 -222 210 -7 0 -20 -12 -29 -26z"/>
<path d="M7292 13817 c-19 -20 -20 -28 -12 -57 17 -60 12 -181 -11 -250 l-21
-63 36 -36 36 -36 110 110 c60 60 110 114 110 120 0 6 -51 61 -113 123 l-113
113 -22 -24z"/>
<path d="M7518 13453 c-375 -378 -376 -379 -364 -476 6 -53 37 -102 89 -140
40 -31 125 -34 179 -8 51 24 378 348 378 374 0 23 55 143 86 189 30 42 85 68
147 68 36 0 49 6 76 34 l34 35 -138 135 c-75 75 -138 136 -139 136 -1 0 -157
-156 -348 -347z"/>
<path d="M6960 13193 c-45 -20 -203 -29 -254 -14 -33 9 -43 8 -58 -6 -10 -9
-18 -21 -18 -27 0 -6 99 -110 220 -231 l220 -219 44 43 45 44 -25 30 c-66 78
-88 180 -60 272 l15 50 -36 37 c-41 42 -44 43 -93 21z"/>
<path d="M7516 12781 c-11 -18 -97 -51 -148 -57 -40 -4 -68 -1 -113 14 -36 13
-65 17 -75 12 -23 -13 -230 -226 -230 -237 0 -6 7 -16 16 -24 16 -13 55 -8
160 23 39 11 46 9 115 -24 66 -31 132 -76 224 -152 l31 -25 129 129 129 130
-104 108 c-102 106 -123 122 -134 103z"/>
<path d="M8486 12381 c-76 -76 -127 -135 -124 -144 1 -8 280 -284 618 -613
876 -853 877 -854 886 -854 23 0 124 69 171 116 127 127 149 303 53 430 -79
104 -307 317 -530 494 -58 46 -238 182 -400 303 -162 121 -345 260 -407 309
-61 48 -117 88 -125 88 -7 0 -71 -58 -142 -129z"/>
<path d="M8042 11987 l-133 -134 37 -49 c21 -27 70 -89 109 -139 40 -49 166
-216 280 -370 339 -456 512 -664 705 -849 126 -120 165 -140 275 -141 68 0 89
4 139 29 73 36 162 123 201 198 l30 58 -95 97 c-352 361 -557 572 -950 976
-244 251 -449 457 -455 457 -6 0 -70 -60 -143 -133z"/>
<path d="M7440 9290 c-36 -5 -185 -11 -332 -16 -235 -6 -268 -9 -269 -23 0 -9
-4 -39 -8 -68 -9 -67 1 -86 40 -78 16 4 48 4 70 0 33 -6 43 -13 54 -39 19 -45
41 -1095 24 -1160 -14 -55 -48 -92 -101 -108 -48 -14 -53 -24 -62 -110 l-7
-68 28 0 c15 0 57 5 93 12 38 6 269 13 550 17 l485 6 7 65 c23 226 43 442 43
485 0 48 -1 50 -30 53 -16 1 -64 -3 -105 -10 l-74 -13 -12 -80 c-17 -122 -40
-191 -79 -234 -46 -51 -101 -66 -237 -66 -172 0 -166 -17 -167 500 0 367 11
644 28 687 13 35 50 58 114 73 50 11 52 13 59 51 4 21 7 60 7 87 1 53 9 51
-119 37z"/>
<path d="M8445 9268 c-15 -46 -33 -132 -29 -143 3 -7 30 -15 61 -18 78 -8 93
-25 93 -103 0 -35 -7 -126 -15 -201 -74 -671 -97 -858 -113 -900 -21 -58 -65
-90 -133 -99 -32 -4 -50 -12 -53 -23 -10 -35 -28 -133 -24 -135 1 -2 94 -8
206 -15 112 -6 238 -16 280 -22 42 -5 165 -21 272 -34 107 -14 253 -32 323
-42 111 -14 130 -15 142 -2 8 8 28 75 44 149 17 74 42 175 56 224 14 49 24 95
21 103 -4 10 -32 13 -110 13 l-104 0 -21 -68 c-27 -90 -56 -132 -111 -160 -43
-23 -52 -23 -185 -18 -169 7 -213 16 -244 53 -27 31 -27 33 7 328 l18 150 79
3 c44 2 154 -6 245 -18 91 -11 173 -22 184 -23 15 -2 23 15 47 98 15 55 27
105 25 111 -3 7 -58 14 -148 18 -123 6 -387 33 -396 41 -3 3 56 387 65 423 10
43 38 51 143 42 123 -12 191 -25 245 -49 57 -25 70 -67 54 -171 -6 -39 -9 -73
-7 -75 1 -1 51 -5 111 -7 119 -4 110 -9 122 72 8 52 70 304 84 344 19 49 12
53 -152 60 -249 11 -679 52 -951 91 -132 18 -126 18 -131 3z"/>
<path d="M6255 9230 c-151 -45 -821 -144 -1035 -154 -68 -3 -129 -11 -134 -16
-7 -7 -4 -71 7 -192 10 -101 20 -222 24 -270 4 -62 10 -88 19 -88 13 0 132 26
167 36 14 4 17 17 17 77 0 153 23 217 90 252 27 14 188 51 193 44 10 -13 158
-1065 157 -1121 0 -91 -25 -119 -135 -157 l-80 -27 -3 -59 c-6 -110 -17 -105
170 -68 89 17 257 43 373 57 115 15 231 29 258 32 l47 6 0 83 c0 46 -3 86 -7
88 -5 3 -42 -1 -83 -9 -41 -8 -92 -12 -112 -9 -44 8 -83 48 -97 103 -18 68
-110 790 -136 1070 l-7 72 63 1 c120 2 154 -2 179 -19 31 -22 73 -106 95 -192
10 -36 23 -70 29 -77 8 -9 31 -7 96 8 47 12 89 24 93 28 4 4 -1 45 -12 92 -11
46 -33 158 -50 248 -17 90 -36 170 -42 178 -15 18 -29 16 -144 -17z"/>
<path d="M10218 9004 c-16 -35 -28 -70 -25 -77 3 -7 23 -19 46 -27 23 -7 58
-27 78 -44 49 -43 47 -78 -17 -246 -28 -74 -74 -195 -100 -267 -93 -250 -231
-591 -253 -624 -32 -47 -67 -69 -122 -77 l-48 -7 -23 -68 c-17 -49 -20 -69
-11 -71 7 -2 62 -13 122 -25 61 -11 172 -40 247 -65 105 -33 140 -41 148 -31
5 6 21 38 36 70 30 68 25 78 -46 89 -50 8 -80 37 -80 76 0 16 24 101 54 187
186 540 238 689 246 697 6 6 11 4 14 -5 6 -17 41 -556 56 -859 5 -118 13 -252
16 -298 7 -94 4 -92 114 -95 l64 -2 210 316 c263 394 467 689 477 689 17 0 17
-19 -2 -95 -10 -44 -48 -230 -84 -413 -36 -184 -73 -352 -82 -373 -19 -48 -55
-69 -116 -69 l-45 0 -26 -66 c-15 -37 -25 -72 -22 -79 2 -7 26 -16 53 -20 84
-12 294 -63 413 -99 63 -19 115 -34 117 -33 11 11 60 143 55 148 -4 3 -28 12
-54 19 -26 7 -55 21 -64 32 -42 45 -22 209 91 755 64 307 90 415 110 454 19
36 72 53 142 45 l54 -6 20 44 c10 24 22 58 25 74 7 34 11 32 -111 57 -71 14
-265 63 -382 97 -23 6 -44 10 -46 7 -2 -2 -83 -125 -179 -274 -336 -519 -421
-646 -432 -642 -14 4 -20 127 -36 682 -7 231 -13 421 -14 423 -2 1 -81 22
-177 46 -96 25 -220 60 -277 80 l-103 35 -31 -65z"/>
<path d="M4560 8933 c-69 -25 -192 -62 -274 -83 -81 -21 -150 -41 -153 -44 -3
-3 1 -40 9 -83 15 -87 9 -84 105 -61 92 21 87 32 253 -522 34 -113 68 -224 75
-248 11 -36 11 -44 0 -49 -19 -7 -452 348 -822 674 l-151 133 -99 -36 c-54
-19 -165 -53 -247 -74 -81 -21 -150 -41 -153 -44 -2 -2 1 -35 9 -73 l13 -68
92 -2 c107 -2 126 -10 152 -61 23 -46 277 -979 288 -1058 7 -50 -13 -93 -62
-130 -25 -19 -35 -34 -35 -55 0 -40 20 -129 30 -129 4 0 32 11 62 24 96 42
228 86 373 122 77 20 143 39 147 43 9 8 -10 142 -22 155 -5 4 -38 -2 -75 -14
-75 -25 -107 -21 -131 14 -15 24 -56 156 -182 586 -33 113 -63 212 -67 221
-14 37 25 25 86 -25 252 -206 718 -594 834 -695 77 -67 147 -121 155 -121 30
0 215 88 218 103 2 9 -40 175 -94 369 -284 1034 -276 998 -241 1052 10 15 34
37 53 48 38 22 40 34 23 121 -9 42 -16 57 -28 56 -9 -1 -72 -22 -141 -46z"/>
<path d="M12496 8303 c-20 -32 -36 -65 -36 -74 0 -10 17 -23 44 -33 60 -23 80
-47 73 -89 -3 -19 -63 -160 -132 -313 -70 -154 -158 -347 -196 -431 -103 -230
-134 -287 -175 -323 -37 -32 -39 -33 -111 -27 l-73 5 -39 -66 c-22 -37 -37
-70 -35 -74 2 -3 35 -16 72 -29 174 -57 475 -191 845 -376 211 -105 207 -105
252 -26 16 27 73 117 128 201 84 129 98 155 86 166 -15 14 -158 66 -181 66 -7
0 -34 -29 -60 -64 -78 -107 -126 -126 -246 -95 -83 21 -269 106 -291 132 -29
36 -11 92 133 399 l36 77 88 -30 c48 -17 156 -64 241 -105 85 -41 158 -71 161
-67 32 36 111 167 108 180 -2 11 -42 31 -122 59 -133 47 -366 153 -366 166 0
13 170 349 193 382 17 25 25 28 58 23 56 -7 259 -110 303 -153 35 -34 38 -41
33 -80 -2 -24 -16 -66 -31 -93 -14 -28 -26 -57 -26 -65 0 -12 89 -53 177 -80
19 -6 28 5 79 95 32 57 87 145 122 197 60 91 68 117 40 127 -197 65 -688 275
-950 406 -76 38 -144 69 -152 69 -8 0 -31 -26 -50 -57z"/>
<path d="M2530 8269 c-119 -75 -571 -296 -964 -473 -36 -16 -56 -31 -53 -38 2
-7 13 -39 23 -72 10 -32 25 -61 33 -64 8 -3 31 4 52 16 59 34 94 29 124 -15
26 -40 437 -910 461 -977 8 -21 14 -61 14 -88 0 -45 -4 -53 -49 -101 l-50 -53
26 -72 c14 -40 29 -72 34 -72 5 0 41 20 82 45 109 66 469 240 752 363 137 60
254 116 259 125 7 11 -6 64 -47 194 -31 98 -61 198 -68 223 -18 75 -22 76
-108 29 -111 -60 -107 -52 -85 -157 22 -110 13 -151 -45 -209 -42 -42 -204
-131 -288 -158 -61 -20 -82 -12 -116 43 -29 47 -181 381 -176 386 28 26 175
102 303 157 88 39 161 71 163 73 8 7 -56 201 -69 209 -11 8 -34 -2 -89 -36
-105 -65 -389 -201 -399 -191 -13 13 -170 400 -170 418 0 24 60 64 167 110
205 90 240 84 300 -43 21 -45 42 -81 47 -81 5 0 49 23 98 51 71 41 88 55 82
68 -10 23 -111 327 -126 381 -17 59 -36 60 -118 9z"/>
<path d="M14072 7571 c-23 -27 -42 -56 -42 -63 0 -8 22 -36 50 -63 103 -101
98 -118 -110 -415 -37 -52 -151 -218 -254 -368 -104 -150 -203 -284 -222 -299
-29 -22 -41 -25 -82 -20 -26 3 -56 8 -67 11 -15 4 -31 -8 -69 -55 -27 -34 -45
-64 -40 -69 5 -4 50 -29 99 -56 100 -53 211 -122 329 -207 43 -31 84 -57 90
-57 13 0 106 104 106 119 0 6 -25 25 -55 42 -60 34 -85 62 -85 95 0 20 99 178
374 598 66 101 101 145 108 138 13 -13 29 -671 26 -1064 -2 -168 -1 -309 2
-311 16 -16 225 -106 230 -100 4 5 54 78 112 163 122 181 455 669 581 851 112
163 141 182 233 154 27 -8 50 -15 51 -15 5 0 93 120 93 127 0 5 -39 31 -87 58
-49 27 -163 100 -255 162 l-167 112 -50 -57 c-28 -31 -51 -62 -51 -69 0 -6 22
-25 50 -42 55 -34 68 -63 52 -110 -10 -28 -382 -618 -423 -672 -16 -20 -20
-22 -29 -9 -12 18 -17 420 -11 911 l4 346 -119 71 c-66 39 -164 102 -219 141
-55 39 -103 71 -106 71 -3 0 -25 -22 -47 -49z"/>
<path d="M935 7419 c-38 -16 -121 -55 -184 -86 -338 -166 -546 -389 -607 -651
-22 -97 -20 -267 5 -365 70 -269 269 -535 481 -641 313 -156 637 -70 982 262
123 119 188 199 188 232 0 12 -17 43 -39 69 -57 68 -179 257 -215 331 -26 54
-31 77 -31 137 0 62 -3 75 -25 97 -13 15 -29 25 -36 22 -7 -3 -54 -36 -106
-74 -51 -37 -142 -99 -203 -136 -197 -122 -186 -113 -175 -140 20 -54 71 -146
80 -146 6 0 41 20 78 45 37 24 82 48 100 51 44 9 70 -16 164 -158 l72 -110
-20 -36 c-10 -20 -44 -62 -74 -92 -130 -133 -314 -167 -475 -87 -131 65 -283
230 -384 418 -138 256 -113 443 82 600 83 66 160 102 232 106 77 5 108 -14
163 -98 23 -35 47 -72 54 -82 12 -17 20 -14 105 53 l93 71 -55 102 c-30 56
-75 152 -100 212 -41 97 -58 126 -75 124 -3 0 -36 -14 -75 -30z"/>
<path d="M8679 6061 c-100 -21 -277 -164 -330 -266 -151 -291 -218 -373 -283
-344 -35 16 -73 3 -91 -31 -29 -56 -24 -60 68 -53 111 8 113 5 88 -119 -26
-122 -66 -282 -151 -598 -38 -140 -79 -295 -91 -345 -33 -138 -95 -260 -167
-326 -56 -52 -111 -79 -161 -79 -25 0 -28 31 -6 70 32 56 2 100 -69 100 -45 0
-96 -41 -96 -78 0 -68 80 -132 163 -132 48 0 146 35 199 71 105 72 177 160
255 315 96 190 144 334 238 720 30 126 61 254 69 284 8 30 17 68 21 84 l6 28
92 -3 92 -4 3 38 c4 42 6 41 -90 37 -31 -1 -61 1 -67 4 -10 7 35 142 112 336
32 83 52 116 92 159 61 64 115 94 174 94 61 0 75 -20 53 -78 -19 -51 -7 -85
35 -104 52 -24 133 29 133 86 0 38 -35 96 -71 117 -37 22 -156 31 -220 17z"/>
<path d="M7225 5441 c-123 -37 -204 -84 -304 -177 -167 -154 -252 -355 -238
-563 10 -153 66 -250 172 -300 207 -97 472 -22 671 192 128 138 194 302 194
487 0 114 -18 182 -63 242 -90 118 -269 167 -432 119z m194 -55 c37 -20 89
-79 98 -114 5 -15 8 -81 7 -147 -1 -99 -6 -135 -28 -208 -46 -153 -121 -281
-235 -401 -95 -100 -158 -123 -254 -94 -102 31 -143 122 -134 298 6 125 32
213 113 376 64 133 153 237 236 278 60 30 151 35 197 12z"/>
<path d="M11639 2386 c-15 -14 -385 -26 -787 -26 l-470 0 -5 -33 c-25 -141
-25 -141 65 -142 100 0 93 50 96 -613 2 -382 -1 -594 -8 -627 -14 -66 -57
-110 -122 -127 -58 -14 -62 -22 -71 -121 l-6 -68 92 8 c51 4 340 8 644 7 481
-1 553 1 558 14 3 8 15 84 26 169 11 84 26 190 35 234 8 45 13 88 10 95 -6 15
-68 17 -165 6 -60 -8 -54 2 -86 -126 -21 -81 -67 -139 -123 -157 -21 -6 -114
-13 -209 -16 l-172 -5 -31 30 -30 30 0 236 c0 177 3 237 13 243 6 4 131 9 277
10 l265 3 18 111 c12 74 15 115 8 122 -6 6 -43 5 -108 -3 -55 -6 -177 -10
-278 -8 l-180 3 2 90 c1 50 5 152 9 228 9 191 -1 182 201 181 256 0 275 -12
283 -168 l5 -101 55 3 c30 1 81 5 113 8 66 7 62 0 72 138 3 49 15 143 26 210
20 123 19 166 -5 166 -7 0 -15 -2 -17 -4z"/>
<path d="M3581 2366 c-7 -8 -15 -89 -21 -202 -5 -104 -13 -230 -16 -280 l-7
-91 49 3 c27 2 73 5 103 7 57 5 71 16 71 60 0 51 31 182 51 214 12 20 36 38
62 48 46 17 201 35 218 25 16 -11 8 -1186 -9 -1225 -24 -54 -61 -83 -121 -95
-31 -7 -71 -15 -90 -19 -38 -7 -44 -20 -55 -120 l-5 -54 106 6 c58 4 260 7
449 7 l343 0 8 73 c4 39 8 79 8 87 0 12 -18 15 -102 16 -142 1 -173 25 -187
144 -11 92 19 1156 33 1178 9 14 170 -6 210 -26 49 -25 76 -83 98 -217 l18
-110 78 4 c84 3 133 13 130 27 0 5 -7 126 -13 269 -9 186 -16 264 -26 274 -11
12 -35 12 -171 -3 -206 -21 -832 -22 -1031 0 -164 17 -167 17 -181 0z"/>
<path d="M7538 2361 c-87 -9 -162 -21 -167 -26 -5 -6 -48 -122 -96 -260 -77
-224 -234 -669 -346 -985 -23 -63 -53 -137 -67 -164 -26 -47 -77 -96 -100 -96
-7 0 -21 -9 -31 -19 -18 -18 -24 -19 -75 -7 -118 28 -158 71 -349 379 -127
205 -136 223 -120 235 10 7 46 31 81 54 222 145 316 412 222 626 -71 161 -266
259 -520 262 -41 1 -238 1 -436 0 l-362 0 -11 -77 c-8 -53 -8 -80 -1 -87 6 -6
39 -11 75 -11 109 0 100 56 103 -626 2 -403 -1 -603 -8 -631 -17 -62 -56 -91
-151 -112 -24 -5 -27 -11 -37 -87 -7 -46 -11 -83 -9 -83 1 -1 163 0 359 2
l357 4 6 32 c4 17 7 54 8 80 l2 49 -68 12 c-43 7 -75 18 -88 31 -31 31 -41
133 -32 314 l8 155 75 3 c41 2 84 1 95 -2 16 -4 54 -73 154 -276 216 -441 235
-455 556 -419 155 18 227 20 512 17 l332 -3 7 72 c9 105 11 103 -101 103 -90
0 -98 2 -122 26 -22 22 -25 32 -20 67 6 42 72 265 81 274 12 12 253 23 372 17
l132 -6 30 -122 c42 -164 42 -164 31 -196 -13 -36 -59 -58 -137 -66 l-60 -7
-7 -79 c-4 -43 -6 -81 -4 -82 2 -2 178 -1 391 2 l387 5 6 73 c4 40 5 77 1 82
-3 5 -23 12 -43 16 -52 8 -97 38 -127 83 -35 53 -166 496 -311 1048 -42 160
-85 320 -96 358 l-20 67 -52 -1 c-29 -1 -123 -9 -209 -18z m-1688 -211 c171
-23 250 -71 290 -176 36 -97 20 -234 -36 -316 -34 -48 -125 -116 -168 -123
-17 -3 -78 0 -136 7 l-105 13 1 180 c1 247 12 392 31 410 17 17 23 18 123 5z
m1736 -264 c103 -384 119 -457 104 -466 -16 -10 -370 -14 -370 -4 0 3 43 138
96 300 87 267 98 295 117 292 17 -3 26 -22 53 -122z"/>
<path d="M8534 2325 c-3 -19 -7 -59 -8 -88 l-1 -52 75 -5 c67 -5 76 -7 87 -30
17 -33 19 -1164 2 -1224 -15 -53 -56 -90 -121 -108 -60 -17 -65 -26 -67 -125
l-1 -63 63 8 c81 9 431 8 627 -2 137 -7 166 -6 250 12 131 27 195 54 297 121
236 155 368 380 404 683 42 363 -104 673 -381 810 -184 91 -187 91 -737 95
l-482 4 -7 -36z m796 -196 c198 -41 326 -162 384 -362 23 -81 34 -257 24 -390
-14 -186 -60 -309 -154 -407 -64 -68 -118 -96 -223 -118 -66 -13 -94 -14 -166
-5 -77 9 -91 14 -119 42 l-31 31 -3 218 c-3 227 22 944 34 976 4 10 16 22 28
26 23 10 155 3 226 -11z"/>
</g>
</svg>
